<svg xmlns="http://www.w3.org/2000/svg" width="468" height="516" viewBox="0 0 468 516">
  <defs>
    <style>
      .cls-1 {
        fill-rule: evenodd;
      }
    </style>
  </defs>
  <path id="Color_Fill_1" data-name="Color Fill 1" class="cls-1" d="M184,176c18.944-.5,40.524-2,62-2h21a100.069,100.069,0,0,0,17,2q4-24,8-48c3.85-16.708,2.487-34.2,6-50q0.5-10.5,1-21c4.037-17.688,7.658-33.86,20-43,38.815-28.743,101.76-2.531,107,40-6.038-.657-7.632.539-13,2-4.086,6.444-9.579,11.5-12,20-2.525,8.87-.273,21.9-5,29-1.3.877-2.467,0.894-5,1-3.025-2.091-24.1-9.347-25-9-16.034,20.2-13.3,58.924-12,91l34,2c12.08-2.643,24.333-4.484,35-7v1c-2.291,2.454-3.543,6.8-5,10h2c7.773-5.324,24.566-.74,32,1v1c0.465,1.823,2.533,4.334,3,6v14h2c2.108-1.651,5.932-2.371,9-3v9c-4.714,7.552-3.566,19.879-7,28-7.589,17.949-18.812,27.539-34,38-8.574,5.9-13.124,15.226-26,18l-15-2q-0.5,8.5-1,17h1c2.931-5.51,4.979-6.41,14-6v2c-6.6,5.114-10.991,13.229-16,20-3.755,5.076-9.347,9.8-13,15-11.605,16.527-21.027,34.051-33,50-6.1,8.129-17.21,16.644-26,22-5.1,3.105-14.977,3.929-18,9,3.612,4.589,10.792,17.478,13,23a32.775,32.775,0,0,1,10,3l-1,1c-3.878,3.149-10.423,4.766-17,5v8c3.633,1.1,4.631,2.85,7,5v6c-6.247,6.257-21.239,24.227-29,27-7.511-10.788-24.931,1.47-33,3v-2c-2.691-4-2.125-12.48-2-19h-2c-3.506-2.707-5.681-1.087-10,0a89.68,89.68,0,0,1-2,21h-3c-9.065-8.933-21.093-6.856-32-3-7.3-10.775-26.534-16.523-27-33,4.351-3.538,7.134-4.523,7-13-6.388-.028-13.361-1.91-17-5l-1-1c12.109-4.681,20-14.663,23-28-38.586-5.867-60.525-55.863-80-83-6.783-9.452-22.4-22.1-26-33H81c0.82,3.313,1.616,4.351,4,6v-5c-1.541-2.312-1.119-8.105-1-12-15.543.783-18.633,2.3-31-5L43,288C20.058,272.132,1.988,251.378,2,213H4l9,3c-0.408-8.7-.661-18.236,5-21,7.042-5.17,23.481-2.847,32-1v-1c-2.178-2.413-3.59-6.986-5-10h2c13.37,10.267,47.456,5.388,67,5,2.306-40.9.835-61.757-12-92-10.517,2.662-16.832,9.245-30,10l-1-1c0.166-22.456-6.836-53.62-29-51,5.551-42.383,68.03-68.988,107-40,12.273,9.129,16.073,25.3,20,43q0.5,10.5,1,21c3.467,15.813,2.2,33.274,6,50Q180,152,184,176ZM89,38c-2.2,2.088-3.689,1.716-5,5-4.165,5.023-.245,11.8,7,12,4.856-4.382,8.64-5.544,7-14C94.854,39.511,93.591,38.4,89,38Zm286,0c-2.2,2.088-3.689,1.716-5,5-0.8,1.179-.773,1.681-1,4,2.856,3.379,11.181,13.806,15,4,2.707-3.506,1.087-5.681,0-10C380.854,39.511,379.591,38.4,375,38ZM43,58c5.379-.031,7.275,1.006,11,2,8.134,13.1,12.435,27.984,14,48-16.269,9.285-37.777,22.849-64,18l-1-3c-4.616-7.339,5.295-14.161,8-18C21.992,89.4,32.394,73.616,43,58Zm375,0h7c8.5,13.382,18.989,26.177,28,39,4.507,6.413,7.4,13.752,13,19a38.784,38.784,0,0,1-1,9l-3,1c-2.244,1.53-12.072,1.968-16,1-11.007-2.713-45.008-12.844-46-23,4.053-6.577,1.779-16.589,4-25C406.694,68.8,411.525,64.168,418,58ZM233,335c-3.6,2.687-10.274,2.314-14,5h2c9.275,7.82,17.918,2.6,28,0v-1C242.517,338.659,238.472,336.364,233,335Zm-2,99c-2.409,3.6-4.478,4.061-5,10a23.128,23.128,0,0,1,7,5c1.754-.631.971-0.193,2-1,4.077-1.166,6.548-2.9,7-8l-5-6h-6Zm-33,3-8,9s22.061-8.175,23-9H198Zm57,0c5.805,4.479,16.007,6.122,23,9l-8-9H255Zm-22,23c-1.786,4.993-8.884,7.97-9,11,6.308,6.6,15.327,6.429,21-1C240.4,467.241,237.64,462.226,233,460Z"/>
</svg>
