<svg xmlns="http://www.w3.org/2000/svg" width="516" height="504" viewBox="0 0 516 504">
  <defs>
    <style>
      .cls-1 {
        fill-rule: evenodd;
      }
    </style>
  </defs>
  <path id="Color_Fill_1" data-name="Color Fill 1" class="cls-1" d="M254,0c55.116-.736,82.543,19.319,101,55,7,13.541,15.484,36.9,10,59q-4,12.5-8,25c-15.573,35.737-40.58,49.679-83,59-19,4.174-39.232-3.449-50-9-7.988-4.118-15.195-6.89-22-12-3.251-2.441-4.531-6.683-7-10l-15-15c-14.187-21.642-20.106-63.43-8-92,6.862-16.2,33.82-44.958,50-52C229.74,4.631,247.85,3.84,254,0Zm4,20-18,4a123.313,123.313,0,0,0-28,16c-2.971,2.328-4.69,6.911-7,10-7.433,9.938-14.519,20.738-18,35-6.256,25.632,11.763,62.482,23,71,12.418,9.413,26.546,17.662,44,22,29.333,7.291,59.838-14.983,71-30,5.264-7.082,13.153-11.425,14-23-0.682-.771-1.311-2.232-2-3-11.7-11.008-44.839-28.847-67-25,0.226,7.594.236,14.691-2,20l-3,3c-0.155.449,1.985,7.793,2,11,0.07,14.929-.6,33.363-9,40-1.895,1.521-3.59,1.789-7,2-10.134-15.881-23.4-32.7-29-53-1.546,1.133-.843,1.085-3,2-19.63-26.172-27.121-62.894,5-83,5.871-3.675,13.069-10.678,25-8,21.861,4.907,37.117,13.728,55,21l11,1c6.379,1.874,9.313,6.176,18,7V59c-3.614-3.527-4.054-7.554-7-12C316.392,32.5,283.769,20.051,258,20ZM231,81c-1.172,1.151-2.836,1.839-4,3,1.05,1.438,1.558,3.922,2,6a14.145,14.145,0,0,0,4,1c1.359-1.261,1.768-1.365,4-2V86a9.975,9.975,0,0,1-3-5h-3Zm-3,32-2,3c0.406,0.231,3.8-1.782,5-2v-1h-3Zm16,0c2.949,2.442,13.956,6.6,17,5C254.3,117.186,250.764,114.034,244,113Zm-126,7c11.217-.451,19.378,2.061,22,10,4.317,4.7,3.52,15.864,0,21-2.431,3.546-7.356,4.512-11,7l-18,18c-13.067,17.388-19.183,36.988-35,52l-18-1a81.757,81.757,0,0,0-9-12c-0.161-17.455,7.273-24.67,14-35,9.228-14.17,18.735-31.008,32-41C102.494,133.355,112.243,127.327,118,120Zm276,3c28.364,0.237,46.885,35.711,59,54,3.5,5.28,9.494,10.841,12,17,2.48,6.095.175,13.922-1,19-6.963,4.762-7.884,8.169-21,8-4.036-3.215-9.906-3.877-13-8-5.452-7.265-8.04-16.177-13-24l-19-22c-6.379-6.39-18.472-12.282-19-24,1.337-1.992,1.1-6.507,1-10C384.863,130.559,389.576,126.441,394,123Zm12,124c58.687-.762,88.434,28.1,105,69,21.084,52.05-17.227,101.71-47,120-6.858,4.213-17.786,6.986-26,9-13.492,3.309-41.51,1.484-53-2-41.857-12.693-86.875-72.643-63-131,10-24.454,30.218-46.682,54-57C383.274,251.844,400.253,250.661,406,247ZM80,249c51.5-.659,83.247,12.68,103,43,4.734,7.267,8.419,17.386,11,26,19.106,63.763-22.891,114.644-69,127C63.79,461.4,16.423,419.056,3,377c-6.617-20.731-3.117-53.122,4-70,7.914-18.768,29.615-39.768,47-49C61.172,254.191,73.443,253.306,80,249Zm28,20c-7.973,10.169-11.749,28.627-15,43-2.637,11.66,3.578,23.7,1,32h5c4.7-3.33,15.631-.874,20-2-0.094,3.09-.14,6.33,1,8a27.42,27.42,0,0,1,1-9c8.633-1.263,46.146-9.729,51,1,0.877,1.3.894,2.467,1,5-3.774,3.676-11.119,8.267-14,12-4.858,6.294-10.7,13.305-17,18-4.188,3.12-8.854,4.9-12,9,2.933-.392,1.253-1.636,3,1-2.675,2.232-2.912,5.121-5,8-4.693,6.468-15.1,14.031-23,17-24.23,9.1-63.67-.873-65-25-2.181-3.337-4.477-23.441-3-30a367.307,367.307,0,0,0,9-68H45c-10.361,15.613-20.027,27.8-25,50-3.278,14.631,1.957,30.707,6,39,12.916,26.5,41.9,56.235,83,47h8c31.054-8.628,69.79-42.267,59-88-2.241-9.5-2.023-17.3-6-25-7.425-14.373-24.908-31.49-40-38C123.377,271.143,114.264,271.415,108,269Zm306,82c-7.542-.318-14.136-3.543-19-7l-1-3-5,1c-13.1-4.071-43.289-11.348-44-27,1.724-1.732,1.5-2.783,4-4,8.745-6.574,39.757-11.271,53-13l2,2a25.766,25.766,0,0,1-2-5c7.956-2.891,19.953-12.228,33-9,21.3,5.27,59.1,22.893,50,56-5.9,21.475-22.34,35.161-34,51-7.288,9.9-13.417,21.867-20,32h2c4.96-3.241,11.46-3.572,17-6,15.444-6.769,30.63-20.138,38-35,3.833-7.73,2.889-15.459,5-25,10.872-49.146-27.74-81.844-63-90-10.826-2.5-24.952.888-32,3-32.884,9.856-50.435,25.1-59,59-8.234,32.586,11.383,73.13,31,80,2.609-3.35,6.556-4.439,10-7C391.036,395.8,411.444,366.819,414,351Zm-9-51c1.233,2.516,1.233,10.232,3,13V302Zm26,13c-0.836,2.9-1.391,2.574-2,6,2.67,1.441,4.221,1.994,9,2a18.324,18.324,0,0,0,1-6l-2-2h-6Zm-25,2v2h1v-2h-1ZM118,355c-0.007,2.72.039,4.6,1,6C119.007,358.28,118.961,356.4,118,355Zm0,16v2h1v-2h-1Zm-26,8c-1.708,2.725-2.536,2.5-3,7,2.072,1.283,2.3,2.077,5,3,3.632-2.95,4.959-1.99,5-9l-1-1H92Zm29,0c1.452,2.859,2.176,3.516,5,5Zm6,5c1.021,0.8.274,0.355,2,1C127.979,384.2,128.726,384.645,127,384Zm62,69c14.357,0.148,24.057,5.943,35,9,7.614,2.127,17.464,1.529,24,3,17.078,3.843,50.349-4.281,63-8,4.08-1.2,11.79-5.306,19-3,5.607,1.793,8.731,6.972,13,10a128.317,128.317,0,0,1,1,15c-2.078,2.173-2.846,5.906-5,8-6.478,6.3-18.183,5.916-28,9-42.178,13.252-91.854,2.058-129-6-4.977-7.406-8.118-10.292-8-24,2.572-2.64,4-6.831,7-9C183.457,455.222,186.7,454.863,189,453Z"/>
</svg>
